HIERARCHY
ROOT Hips
{
	OFFSET 0.000000 0.000000 0.000000
	CHANNELS 6 Xposition Yposition Zposition Zrotation Yrotation Xrotation 
	JOINT LHipJoint
	{
		OFFSET 0.000000 0.000000 0.000000
		CHANNELS 3 Zrotation Yrotation Xrotation
		JOINT LeftUpLeg
		{
			OFFSET 1.363060 -1.794630 0.839290
			CHANNELS 3 Zrotation Yrotation Xrotation
			JOINT LeftLeg
			{
				OFFSET 2.448110 -6.726130 0.000000
				CHANNELS 3 Zrotation Yrotation Xrotation
				JOINT LeftFoot
				{
					OFFSET 2.562200 -7.039590 0.000000
					CHANNELS 3 Zrotation Yrotation Xrotation
					JOINT LeftToeBase
					{
						OFFSET 0.157640 -0.433110 2.322550
						CHANNELS 3 Zrotation Yrotation Xrotation
						End Site
						{
							OFFSET 0.000000 0.000000 0.000000
						}
					}
				}
			}
		}
	}
	JOINT RHipJoint
	{
		OFFSET 0.000000 0.000000 0.000000
		CHANNELS 3 Zrotation Yrotation Xrotation
		JOINT RightUpLeg
		{
			OFFSET -1.305520 -1.794630 0.839290
			CHANNELS 3 Zrotation Yrotation Xrotation
			JOINT RightLeg
			{
				OFFSET -2.542530 -6.985550 0.000000
				CHANNELS 3 Zrotation Yrotation Xrotation
				JOINT RightFoot
				{
					OFFSET -2.568260 -7.056230 0.000000
					CHANNELS 3 Zrotation Yrotation Xrotation
					JOINT RightToeBase
					{
						OFFSET -0.164730 -0.452590 2.363150
						CHANNELS 3 Zrotation Yrotation Xrotation
						End Site
						{
							OFFSET 0.000000 0.000000 0.000000
						}
					}
				}
			}
		}
	}
	JOINT LowerBack
	{
		OFFSET 0.000000 0.000000 0.000000
		CHANNELS 3 Zrotation Yrotation Xrotation
		JOINT Spine
		{
			OFFSET 0.028270 2.035590 -0.193380
			CHANNELS 3 Zrotation Yrotation Xrotation
			JOINT Spine1
			{
				OFFSET 0.056720 2.048850 -0.042750
				CHANNELS 3 Zrotation Yrotation Xrotation
				JOINT Neck
				{
					OFFSET 0.000000 0.000000 0.000000
					CHANNELS 3 Zrotation Yrotation Xrotation
					JOINT Neck1
					{
						OFFSET -0.054170 1.746240 0.172020
						CHANNELS 3 Zrotation Yrotation Xrotation
						JOINT Head
						{
							OFFSET 0.104070 1.761360 -0.123970
							CHANNELS 3 Zrotation Yrotation Xrotation
							End Site
							{
								OFFSET 0.000000 0.000000 0.000000
							}
						}
					}
				}
				JOINT LeftShoulder
				{
					OFFSET 0.000000 0.000000 0.000000
					CHANNELS 3 Zrotation Yrotation Xrotation
					JOINT LeftArm
					{
						OFFSET 3.362410 1.200890 -0.311210
						CHANNELS 3 Zrotation Yrotation Xrotation
						JOINT LeftForeArm
						{
							OFFSET 4.983000 -0.000000 -0.000000
							CHANNELS 3 Zrotation Yrotation Xrotation
							JOINT LeftHand
							{
								OFFSET 3.483560 -0.000000 -0.000000
								CHANNELS 3 Zrotation Yrotation Xrotation
								JOINT LeftFingerBase
								{
									OFFSET 0.000000 0.000000 0.000000
									CHANNELS 3 Zrotation Yrotation Xrotation
									JOINT LeftHandIndex1
									{
										OFFSET 0.715260 -0.000000 -0.000000
										CHANNELS 3 Zrotation Yrotation Xrotation
										End Site
										{
											OFFSET 0.000000 0.000000 0.000000
										}
									}
								}
								JOINT LThumb
								{
									OFFSET 0.000000 0.000000 0.000000
									CHANNELS 3 Zrotation Yrotation Xrotation
									End Site
									{
										OFFSET 0.000000 0.000000 0.000000
									}
								}
							}
						}
					}
				}
				JOINT RightShoulder
				{
					OFFSET 0.000000 0.000000 0.000000
					CHANNELS 3 Zrotation Yrotation Xrotation
					JOINT RightArm
					{
						OFFSET -3.136600 1.374050 -0.404650
						CHANNELS 3 Zrotation Yrotation Xrotation
						JOINT RightForeArm
						{
							OFFSET -5.241900 -0.000000 -0.000000
							CHANNELS 3 Zrotation Yrotation Xrotation
							JOINT RightHand
							{
								OFFSET -3.444170 -0.000000 -0.000000
								CHANNELS 3 Zrotation Yrotation Xrotation
								JOINT RightFingerBase
								{
									OFFSET 0.000000 0.000000 0.000000
									CHANNELS 3 Zrotation Yrotation Xrotation
									JOINT RightHandIndex1
									{
										OFFSET -0.622530 -0.000000 -0.000000
										CHANNELS 3 Zrotation Yrotation Xrotation
										End Site
										{
											OFFSET 0.000000 0.000000 0.000000
										}
									}
								}
								JOINT RThumb
								{
									OFFSET 0.000000 0.000000 0.000000
									CHANNELS 3 Zrotation Yrotation Xrotation
									End Site
									{
										OFFSET 0.000000 0.000000 0.000000
									}
								}
							}
						}
					}
				}
			}
		}
	}
}
MOTION
Frames: 12
Frame Time: 0.008333
0.396370 17.367561 -6.139864 2.779296 10.888509 21.128230 -4.359301 -1.320259 1.620392 -12.506796 -0.857697 -2.053423 -0.981059 6.340594 17.931730 3.036445 -13.127243 0.975686 2.185732 -9.238795 -26.548062 0.659505 3.196218 -5.254326 11.136236 3.307966 -45.846763 1.346352 -7.605399 17.058137 -0.695128 -0.455565 8.040866 -1.781869 8.396200 -23.923933 0.230095 -3.492961 -7.418022 1.853721 -4.959532 -9.535344 0.751325 -2.354778 -1.423540 -1.790866 -0.506858 -9.094525 2.283848 -0.681970 9.048048 -0.746814 -0.217101 2.821034 13.045743 6.766216 -1.067580 -92.225300 -12.623371 35.033693 29.786720 -46.536551 -12.737977 0.014258 -0.375592 -14.984751 25.026882 -16.603777 -7.445075 -7.125000 0.000000 0.000000 -1.756523 12.209878 1.345225 -12.565129 -6.427942 1.319700 100.001659 -30.630651 -72.539911 -3.917882 9.878341 0.252172 -1.030130 0.697054 57.628273 -19.475790 -38.667537 11.647783 7.125000 0.000000 0.000000 23.473791 -68.561631 -13.547610
0.389866 17.364833 -6.009995 2.682306 10.768937 21.111953 -4.329729 -1.287888 1.636961 -12.384269 -1.121602 -1.745126 -0.954554 6.418917 18.174867 2.995051 -12.991886 1.298736 2.355651 -9.561150 -27.574715 0.624433 3.161932 -5.234795 11.162433 3.683544 -45.942697 1.252113 -7.905854 17.872739 -0.728291 -0.453245 8.984175 -1.724800 8.262490 -23.517067 0.373742 -3.467813 -7.414272 1.887138 -4.951357 -9.565388 0.783538 -2.344209 -1.497554 -1.745119 -0.480421 -9.139258 2.123730 -0.626224 9.107337 -0.834422 -0.193059 2.867093 13.048269 6.771027 -1.063907 -92.198599 -12.228382 34.958647 30.249864 -46.872944 -13.033210 0.022072 -0.370442 -15.163716 25.357457 -16.666842 -7.582213 -7.125000 0.000000 0.000000 -1.546940 12.092318 1.188916 -12.544942 -6.413922 1.301729 99.860098 -30.620967 -72.877344 -3.947430 9.873941 0.257829 -1.022551 0.706689 58.010240 -19.676250 -38.796659 11.814415 7.125000 0.000000 0.000000 23.426872 -68.746099 -13.615326
0.379033 17.366143 -5.881666 2.591725 10.685055 21.061783 -4.301216 -1.261588 1.648603 -12.256017 -1.302320 -1.543497 -0.914614 6.532388 18.518401 2.947842 -12.833790 1.707753 2.590051 -9.987084 -28.946192 0.591770 3.129306 -5.211002 11.071468 4.192582 -45.946632 1.145718 -8.216312 18.717241 -0.751230 -0.469011 9.702669 -1.591600 7.950251 -22.567111 0.463849 -3.469281 -7.318857 1.935417 -4.970273 -9.608203 0.876911 -2.339377 -1.639600 -1.688267 -0.453587 -9.123637 1.935638 -0.571566 9.126750 -0.939570 -0.170998 2.881955 13.050799 6.776553 -1.057306 -92.184111 -11.701147 34.866556 30.781289 -47.252336 -13.375440 0.030138 -0.362710 -15.281063 25.669806 -16.650761 -7.680256 -7.125000 0.000000 0.000000 -1.344400 12.059297 1.034027 -12.516624 -6.393464 1.282012 99.681389 -30.639631 -73.128140 -3.963365 9.847940 0.263456 -1.011409 0.716595 58.315028 -19.876084 -38.819992 11.956625 7.125000 0.000000 0.000000 23.239287 -68.840565 -13.550677
0.370733 17.366963 -5.751294 2.447100 10.619604 21.025442 -4.268406 -1.241248 1.654222 -12.081659 -1.482859 -1.393610 -0.864635 6.668821 18.934658 2.897780 -12.664886 2.208105 2.806552 -10.372461 -30.194180 0.558575 3.093648 -5.184223 11.067495 4.649604 -45.991351 1.036518 -8.528668 19.573486 -0.776355 -0.431549 10.323706 -1.450040 7.604509 -21.522536 0.647910 -3.455891 -7.286745 1.984239 -4.983799 -9.645839 0.922625 -2.335369 -1.749290 -1.623759 -0.423986 -9.100126 1.748418 -0.514100 9.134627 -1.043074 -0.147494 2.886800 13.055502 6.782162 -1.049578 -92.184895 -11.185332 34.763948 31.279095 -47.606421 -13.697842 0.036729 -0.355848 -15.378093 25.933837 -16.644017 -7.766599 -7.125000 0.000000 0.000000 -1.173792 12.023376 0.903678 -12.489990 -6.376115 1.264773 99.517145 -30.662684 -73.137240 -3.972872 9.838666 0.267717 -1.005809 0.720865 58.373298 -20.079481 -38.859674 12.104835 7.125000 0.000000 0.000000 23.066676 -68.948337 -13.501504
0.369272 17.366459 -5.615407 2.156558 10.603918 21.026438 -4.223992 -1.237001 1.643577 -11.782817 -1.662913 -1.383429 -0.787549 6.867253 19.547265 2.840017 -12.466804 2.955060 2.974724 -10.648335 -31.108746 0.523943 3.049802 -5.149382 11.298395 4.966185 -46.146187 0.919743 -8.846151 20.461438 -0.807379 -0.250372 10.681608 -1.285909 7.168311 -20.222489 1.085648 -3.402382 -7.425551 2.034530 -4.982770 -9.669488 0.839662 -2.333586 -1.771620 -1.538580 -0.386916 -9.055311 1.563553 -0.449051 9.111360 -1.142138 -0.120092 2.864600 13.066068 6.787995 -1.038809 -92.226913 -10.700349 34.632944 31.686132 -47.892177 -13.966709 0.039338 -0.351338 -15.420268 26.067407 -16.662478 -7.821356 -7.125000 0.000000 0.000000 -1.089405 11.979626 0.839586 -12.467899 -6.367163 1.254223 99.391960 -30.697586 -72.493758 -3.965026 9.874554 0.268289 -1.015175 0.709918 57.765969 -20.292497 -38.943503 12.269245 7.125000 0.000000 0.000000 22.934498 -69.092033 -13.494120
0.368454 17.365536 -5.480376 1.883902 10.556624 21.037585 -4.180918 -1.237800 1.628507 -11.518941 -1.842288 -1.399168 -0.706807 7.076677 20.192807 2.780950 -12.282300 3.761134 3.111021 -10.872231 -31.850672 0.488889 3.008233 -5.115162 11.514905 5.285616 -46.309771 0.801152 -9.162401 21.347355 -0.835782 -0.066998 10.993939 -1.150312 6.808917 -19.150921 1.505429 -3.341916 -7.564360 2.080375 -4.970716 -9.693566 0.757943 -2.326136 -1.792821 -1.460787 -0.346977 -9.026787 1.385711 -0.379399 9.096430 -1.236541 -0.090297 2.851152 13.075551 6.794383 -1.028679 -92.272656 -10.218642 34.498176 32.085283 -48.171258 -14.230380 0.042069 -0.347042 -15.466444 26.208366 -16.684151 -7.880084 -7.125000 0.000000 0.000000 -1.000426 11.931519 0.771980 -12.447645 -6.358348 1.242969 99.266276 -30.710868 -71.927167 -3.960724 9.909472 0.267683 -1.022484 0.700377 57.241836 -20.474748 -39.001722 12.406801 7.125000 0.000000 0.000000 22.802314 -69.203403 -13.470352
0.372485 17.361455 -5.351795 1.746083 10.271060 21.125251 -4.147955 -1.276632 1.580079 -11.518657 -2.016541 -1.610306 -0.598503 7.368961 21.086624 2.712061 -12.200157 5.012871 3.007034 -10.704292 -31.291167 0.450652 2.983829 -5.085627 11.622938 5.626542 -46.539306 0.668868 -9.469348 22.217940 -0.844429 0.132933 10.962740 -1.229823 7.028502 -19.801734 1.789849 -3.229008 -7.703197 2.092707 -4.875553 -9.720873 0.685602 -2.275961 -1.805522 -1.438676 -0.285408 -9.121064 1.260815 -0.275041 9.144353 -1.295803 -0.042461 2.903679 13.076864 6.804949 -1.023367 -92.346481 -9.761626 34.335027 32.424987 -48.400011 -14.454875 0.045715 -0.344357 -15.542785 26.405028 -16.730025 -7.968744 -7.125000 0.000000 0.000000 -0.876840 11.850568 0.677885 -12.441231 -6.350574 1.226414 99.136824 -30.561168 -71.940212 -3.983145 9.937064 0.258202 -1.014300 0.701428 57.344874 -20.425076 -38.866880 12.341920 7.125000 0.000000 0.000000 22.670090 -69.071086 -13.323079
0.376516 17.357374 -5.223215 1.608263 9.985496 21.212917 -4.114992 -1.315465 1.531651 -11.518373 -2.190795 -1.821443 -0.490200 7.661246 21.980441 2.643172 -12.118015 6.264608 2.903047 -10.536352 -30.731662 0.412416 2.959424 -5.056091 11.730970 5.967468 -46.768840 0.536583 -9.776296 23.088526 -0.853076 0.332863 10.931541 -1.309335 7.248087 -20.452547 2.074269 -3.116101 -7.842033 2.105040 -4.780389 -9.748179 0.613261 -2.225787 -1.818222 -1.416565 -0.223839 -9.215342 1.135919 -0.170683 9.192277 -1.355064 0.005376 2.956207 13.078178 6.815516 -1.018055 -92.420307 -9.304610 34.171879 32.764691 -48.628764 -14.679370 0.049361 -0.341672 -15.619126 26.601691 -16.775900 -8.057405 -7.125000 0.000000 0.000000 -0.753254 11.769617 0.583791 -12.434817 -6.342799 1.209859 99.007372 -30.411469 -71.953257 -4.005566 9.964657 0.248722 -1.006115 0.702478 57.447913 -20.375404 -38.732038 12.277038 7.125000 0.000000 0.000000 22.537865 -68.938768 -13.175807
0.381907 17.355575 -5.096139 1.423036 9.735059 21.285036 -4.080143 -1.366335 1.467605 -11.473869 -2.364189 -2.174029 -0.349071 8.012197 23.073971 2.563930 -11.907246 8.168534 2.518264 -9.829920 -28.462754 0.382687 2.932511 -5.014719 11.909872 6.295692 -46.935113 0.393267 -10.078504 23.957495 -0.807707 0.353016 10.407422 -1.418215 7.524440 -21.281992 2.432405 -3.007803 -7.921926 2.128985 -4.699788 -9.790995 0.534811 -2.181988 -1.876801 -1.420339 -0.179973 -9.392572 1.007929 -0.080375 9.311460 -1.410924 0.045378 3.071547 13.077110 6.825994 -1.014688 -92.507283 -8.736713 34.007979 33.148021 -48.876854 -14.933202 0.055456 -0.338763 -15.727446 26.893890 -16.771794 -8.155557 -7.125000 0.000000 0.000000 -0.563318 11.729093 0.436868 -12.422966 -6.327329 1.184763 98.836211 -30.262726 -71.982744 -4.020746 9.964348 0.245098 -0.999564 0.703930 57.671806 -20.330542 -38.720639 12.246853 7.125000 0.000000 0.000000 22.570886 -68.915868 -13.184244
0.387348 17.353862 -4.969120 1.236035 9.485935 21.356574 -4.045224 -1.417656 1.402974 -11.427712 -2.537552 -2.531901 -0.206714 8.365341 24.174967 2.484300 -11.691668 10.096840 2.122983 -9.103358 -26.129943 0.353276 2.905504 -4.972904 12.091423 6.623441 -47.099020 0.249539 -10.380534 24.826404 -0.760318 0.366448 9.864875 -1.528193 7.802915 -22.118115 2.793298 -2.899677 -7.999615 2.153366 -4.619732 -9.834391 0.456132 -2.138427 -1.937094 -1.425080 -0.136770 -9.572904 0.879824 0.009407 9.433306 -1.466656 0.085087 3.189235 13.075954 6.836467 -1.011392 -92.594752 -8.164670 33.844050 33.532981 -49.125668 -15.188130 0.061643 -0.335845 -15.836961 27.189660 -16.765820 -8.254064 -7.125000 0.000000 0.000000 -0.370903 11.690081 0.287970 -12.410912 -6.311571 1.159348 98.663491 -30.114019 -72.012846 -4.035655 9.962997 0.241693 -0.993075 0.705397 57.900217 -20.285860 -38.713855 12.217965 7.125000 0.000000 0.000000 22.610084 -68.897059 -13.198503
0.389318 17.352231 -4.844021 1.036003 9.245656 21.370375 -4.008439 -1.468848 1.328266 -11.361292 -2.641517 -2.960975 -0.022415 8.761387 25.402174 2.404934 -11.181139 12.134537 1.736928 -8.229482 -23.450763 0.331474 2.878307 -4.924705 12.252922 7.050563 -47.155352 0.098189 -10.674636 25.684536 -0.696584 0.286111 9.175960 -1.626460 8.036240 -22.826392 3.130867 -2.802260 -7.985995 2.182110 -4.544294 -9.872016 0.395499 -2.095920 -2.019773 -1.404721 -0.105211 -9.738180 0.739757 0.082220 9.548605 -1.535719 0.116023 3.302931 13.078502 6.847675 -1.007128 -92.695918 -7.645204 33.656221 33.824774 -49.309546 -15.383745 0.066743 -0.332449 -15.929676 27.373734 -16.668907 -8.270064 -7.125000 0.000000 0.000000 -0.242994 11.766938 0.188591 -12.400890 -6.292546 1.134347 98.500601 -29.917450 -72.101650 -4.046286 9.939147 0.244945 -0.988522 0.709584 58.240788 -20.388440 -38.813983 12.314287 7.125000 0.000000 0.000000 22.627667 -69.020517 -13.271279
0.390476 17.350619 -4.719369 0.832930 9.007441 21.370705 -3.971219 -1.520011 1.251206 -11.290142 -2.729289 -3.406663 0.171672 9.167444 26.658830 2.325628 -10.601787 14.197757 1.353026 -7.321232 -20.690764 0.311448 2.851066 -4.875016 12.409743 7.500871 -47.186583 -0.054940 -10.966889 26.540154 -0.629036 0.183894 8.452893 -1.721995 8.259030 -23.504839 3.462994 -2.707342 -7.951070 2.211874 -4.469934 -9.908294 0.339076 -2.053659 -2.107675 -1.378506 -0.076370 -9.899944 0.596899 0.151074 9.662375 -1.607892 0.144910 3.415696 13.081915 6.859054 -1.002637 -92.800281 -7.138005 33.462814 34.094829 -49.478273 -15.565521 0.071591 -0.328942 -16.018472 27.531745 -16.550774 -8.266813 -7.125000 0.000000 0.000000 -0.130136 11.870833 0.100766 -12.391343 -6.272758 1.109442 98.340004 -29.709714 -72.204151 -4.055918 9.910049 0.249750 -0.984421 0.714407 58.607530 -20.525381 -38.939056 12.439823 7.125000 0.000000 0.000000 22.640207 -69.177171 -13.357711
